<svg xmlns="http://www.w3.org/2000/svg" viewBox="0 0 1078.52 218.75"><defs><style>.hl-blue,.hl-blue-text{fill:#005280}.hl-green{fill:#68b696}.hl-green,.hl-blue-text{fill-rule:evenodd}</style></defs><path class="hl-green" d="M74.57,213.1V66.94l-18.13,5.9L108.85,12.35l-.03,97.4c8.21-4.68,17.58-8.72,27.02-8.33,15.2,1.29,27.86,12.2,31.38,27.04v47.54l-15.03,8.18-.13-49.62c0-9.11-10.61-16.94-18.52-18.46-15.78-3.02-30.46,3.7-39.76,16.68l.02-86.11-10.81,12.37,6.59-2.56v160.5c1.4.26,2.8.48,4.2.68v-67.33c.06-1.49.08-3.05.1-4.57,4.72-17.1,21.94-25.73,31.85-25.56,5.36.09,10.21.76,13.98,3.36,4.47,3.08,7.8,7.81,7.78,13.22v49.98l-15.02,8.18v-57.32c-.12-2.41-4.2-4.06-7.84-3.67-8.65.95-16.04,8.52-15.82,16.91v67.9h.56c60.41,0,109.38-48.97,109.38-109.38S169.79,0,109.38,0,0,48.97,0,109.38c0,48.24,31.23,89.19,74.57,103.72h0Z"></path><polygon class="hl-blue-text" points="251.23 124.35 279.92 124.35 279.92 81.53 318.18 81.53 318.18 124.35 346.88 124.35 346.88 19.13 318.18 19.13 318.18 60.04 279.92 60.04 279.92 19.13 251.23 19.13 251.23 124.35 251.23 124.35"></polygon><path class="hl-blue-text" d="M441.94,51.8h-25.02v38.7c0,11.33-3.09,17.22-12.8,17.22s-12.8-5.88-12.8-17.22v-38.7h-24.43v37.08c0,11.77.44,20.9,8.54,28.69,6.77,6.47,16.19,9.56,28.99,9.56s22.37-3.09,28.84-9.56c8.39-8.39,8.68-17.36,8.68-28.69v-37.08h0Z"></path><path class="hl-blue-text" d="M512.42,75.64v-21.63c-5.74-3.38-11.48-4.56-18.4-4.56-22.07,0-37.81,15.89-37.81,38.7,0,24.13,16.04,39,37.53,39,6.77,0,12.8-1.77,18.69-5v-22.22c-4.27,4.41-8.39,6.33-13.83,6.33-10.74,0-17.21-7.36-17.21-18.25,0-11.77,6.77-18.69,16.63-18.69,5.15,0,9.56,2.06,14.42,6.32h0Z"></path><polygon class="hl-blue-text" points="528.32 124.35 553.48 124.35 553.48 92.12 580.85 124.35 614.55 124.35 578.94 86.68 611.61 51.8 579.82 51.8 553.48 83.44 553.48 12.95 528.32 12.95 528.32 124.35 528.32 124.35"></polygon><path class="hl-blue-text" d="M615.73,118.31c9.86,6.04,20.6,8.83,33.11,8.83,19.28,0,31.2-10.3,31.2-24.87,0-11.63-6.77-17.8-20.6-21.92-10.15-3.09-16.63-3.38-16.63-8.39,0-3.38,2.94-5.3,8.83-5.3,6.77,0,13.83,2.21,20.9,7.07l5.3-17.66c-10-4.41-19.42-6.62-28.99-6.62-18.98,0-29.43,10-29.43,23.25,0,11.03,6.92,17.66,21.93,21.63,9.56,2.5,15.45,2.5,15.45,8.53,0,3.83-3.39,6.03-9.86,6.03-8.83,0-18.39-3.53-25.9-10.15l-5.3,19.57h0Z"></path><path class="hl-blue-text" d="M745.81,75.64v-21.63c-5.74-3.38-11.48-4.56-18.39-4.56-22.07,0-37.82,15.89-37.82,38.7,0,24.13,16.04,39,37.52,39,6.77,0,12.8-1.77,18.69-5v-22.22c-4.27,4.41-8.39,6.33-13.83,6.33-10.74,0-17.22-7.36-17.22-18.25,0-11.77,6.77-18.69,16.63-18.69,5.15,0,9.56,2.06,14.42,6.32h0Z"></path><path class="hl-blue-text" d="M761.55,124.35h25.16v-30.46c0-16.33,3.82-25.01,15.31-25.01,8.53,0,11.92,5.3,11.92,16.63v38.85h25.6v-41.5c0-10.45-.44-18.39-5.3-24.57-4.41-5.59-12.07-8.83-21.48-8.83-12.21,0-20.31,4.86-26.93,15.74.59-4.12.88-8.68.88-13.09V12.95h-25.16v111.39h0Z"></path><polygon class="hl-blue-text" points="858.38 12.95 858.38 124.35 883.99 124.35 883.99 12.95 858.38 12.95 858.38 12.95"></polygon><path class="hl-blue-text" d="M981.4,51.8h-23.69v11.94c-5.74-9.88-13.39-14.29-24.28-14.29-20.6,0-33.55,15.15-33.55,38.7s12.95,39,31.93,39c11.48,0,19.28-4.42,26.05-14.57v11.77h23.54V51.8h0ZM958.89,88c0,11.33-6.48,18.25-16.92,18.25s-16.78-6.92-16.78-18.25,6.33-18.39,16.78-18.39,16.92,7.21,16.92,18.39h0Z"></path><path class="hl-blue-text" d="M1078.52,51.8h-23.69v11.62c-5.74-9.71-13.39-13.98-24.28-13.98-20.6,0-33.55,15.01-33.55,38.11s12.95,38.11,31.78,38.11c11.48,0,19.72-4.41,25.16-13.54v6.62c0,13.54-1.03,20.75-14.57,20.75-7.06,0-11.48-2.8-12.21-7.21h-26.49c.74,14.86,13.54,24.13,36.79,24.13,27.81,0,41.05-10.15,41.05-32.22V51.8h0ZM1056.01,87.86c0,11.03-6.33,17.95-16.93,17.95s-17.07-6.91-17.07-17.95,6.47-17.96,17.07-17.96,16.93,6.92,16.93,17.96h0Z"></path><path class="hl-blue" d="M537.79,196.12h5.1c4.8,0,8.3-1.09,10.49-3.28,2.2-2.19,3.3-5.65,3.3-10.39s-1.1-8.18-3.3-10.37c-2.19-2.2-5.7-3.3-10.49-3.3h-5.1v27.34h0ZM528.62,203.85v-42.87h11.69c4.61,0,8.23.32,10.88.97,2.66.64,4.99,1.72,7,3.22,2.6,1.93,4.57,4.37,5.9,7.31,1.34,2.94,2.01,6.29,2.01,10.03s-.68,7.18-2.05,10.11-3.37,5.37-6,7.28c-1.96,1.41-4.13,2.42-6.52,3.04-2.39.61-5.89.92-10.49.92h-12.42ZM572.63,163.33c0-1.33.48-2.47,1.43-3.43.96-.96,2.1-1.44,3.43-1.44s2.5.47,3.47,1.42c.97.95,1.45,2.1,1.45,3.45s-.48,2.51-1.45,3.47c-.97.96-2.12,1.44-3.47,1.44s-2.47-.49-3.43-1.47c-.95-.98-1.43-2.12-1.43-3.44h0ZM573.35,203.85v-28.72h8.34v28.72h-8.34ZM609.94,186.52c-.23-1.82-.89-3.2-1.98-4.13-1.08-.93-2.56-1.39-4.43-1.39s-3.37.46-4.49,1.39c-1.13.93-1.84,2.31-2.16,4.13h13.05ZM618.18,191.56h-21.56c.33,2.07,1.08,3.62,2.26,4.64,1.17,1.03,2.76,1.54,4.77,1.54,1.52,0,2.84-.29,3.94-.88,1.11-.58,2.03-1.47,2.77-2.66l6.72,3.36c-1.56,2.52-3.46,4.39-5.68,5.61-2.23,1.22-4.88,1.83-7.93,1.83-4.65,0-8.32-1.39-11.04-4.16-2.71-2.77-4.07-6.5-4.07-11.18s1.42-8.22,4.26-11.12c2.84-2.91,6.48-4.36,10.91-4.36s8.18,1.36,10.83,4.09c2.65,2.72,3.98,6.44,3.98,11.13,0,.26,0,.53-.03.84-.02.3-.06.74-.12,1.33h0ZM643.66,203.85v-42.87h9.17v35.08h14.63v7.8h-23.81ZM694.21,189.53c0-2.34-.68-4.2-2.05-5.6-1.37-1.39-3.2-2.09-5.51-2.09s-4.13.69-5.48,2.08c-1.35,1.38-2.02,3.25-2.02,5.61s.67,4.22,2.02,5.62c1.35,1.41,3.18,2.11,5.48,2.11s4.12-.7,5.49-2.11c1.38-1.4,2.07-3.27,2.07-5.62h0ZM702.73,189.59c0,4.42-1.51,8.09-4.53,11.01-3.02,2.93-6.84,4.39-11.47,4.39s-8.52-1.46-11.54-4.39c-3.03-2.93-4.54-6.6-4.54-11.01s1.52-8.05,4.57-11c3.05-2.95,6.89-4.42,11.51-4.42s8.48,1.45,11.49,4.36c3.01,2.91,4.51,6.6,4.51,11.06h0ZM737.74,203.37c0,3.04-.18,5.17-.54,6.4-.36,1.23-.98,2.3-1.86,3.2-1.25,1.35-2.85,2.35-4.81,2.99-1.95.65-4.32.97-7.12.97-4.67,0-8.2-.74-10.62-2.23-2.43-1.48-3.74-3.74-3.96-6.77h9.17c.14,1.11.64,1.93,1.52,2.45.88.53,2.18.79,3.89.79,2.27,0,3.9-.59,4.9-1.76,1.01-1.17,1.51-3.13,1.51-5.86v-4.1c-1.11,1.78-2.45,3.09-4.03,3.95-1.57.86-3.43,1.29-5.58,1.29-3.95,0-7.1-1.38-9.45-4.14-2.37-2.77-3.55-6.49-3.55-11.16s1.15-8.49,3.46-11.18c2.3-2.69,5.49-4.04,9.54-4.04,2.09,0,3.95.48,5.58,1.45,1.63.96,3,2.38,4.09,4.25v-4.74h7.85v28.24h0ZM730.17,189.44c0-2.54-.64-4.54-1.93-6-1.29-1.47-3.05-2.2-5.28-2.2s-4.07.73-5.36,2.18c-1.29,1.46-1.94,3.47-1.94,6.02s.64,4.56,1.91,5.98c1.27,1.43,3.05,2.14,5.33,2.14s4.07-.71,5.35-2.14c1.28-1.42,1.92-3.42,1.92-5.98h0ZM745.54,163.33c0-1.33.48-2.47,1.43-3.43.96-.96,2.1-1.44,3.43-1.44s2.5.47,3.47,1.42c.97.95,1.45,2.1,1.45,3.45s-.48,2.51-1.45,3.47c-.97.96-2.12,1.44-3.47,1.44s-2.47-.49-3.43-1.47c-.95-.98-1.43-2.12-1.43-3.44h0ZM746.26,203.85v-28.72h8.33v28.72h-8.33ZM760.24,198.81l6.42-3.3c.21,1.11.79,1.99,1.73,2.63.93.65,2.09.97,3.48.97s2.44-.25,3.22-.75c.78-.49,1.17-1.18,1.17-2.06,0-1.39-1.39-2.55-4.16-3.49-.86-.29-1.54-.53-2.05-.73-3.38-1.27-5.72-2.55-7.02-3.84-1.3-1.29-1.95-2.88-1.95-4.77,0-2.82,1.1-5.09,3.31-6.83,2.21-1.74,5.12-2.61,8.73-2.61,2.57,0,4.81.52,6.69,1.55,1.89,1.03,3.26,2.5,4.12,4.39l-6.12,3.06c-.33-1.08-.91-1.9-1.73-2.46-.82-.56-1.85-.84-3.08-.84s-2.22.25-2.99.76c-.76.51-1.14,1.18-1.14,2,0,1.43,1.89,2.76,5.68,4,.45.13.79.24,1.03.32,3.15,1.03,5.39,2.24,6.72,3.61,1.33,1.38,1.99,3.13,1.99,5.26,0,2.85-1.1,5.11-3.31,6.79-2.21,1.68-5.19,2.52-8.93,2.52-2.97,0-5.5-.55-7.6-1.65-2.11-1.11-3.51-2.62-4.21-4.53h0ZM791.43,203.85v-22.19h-4.02v-6.54h4.02v-9.53h8.33v9.53h4.02v6.54h-4.02v22.19h-8.33ZM808.51,163.33c0-1.33.48-2.47,1.43-3.43.96-.96,2.1-1.44,3.43-1.44s2.5.47,3.47,1.42c.97.95,1.45,2.1,1.45,3.45s-.48,2.51-1.45,3.47c-.97.96-2.12,1.44-3.47,1.44s-2.47-.49-3.43-1.47c-.95-.98-1.43-2.12-1.43-3.44h0ZM809.23,203.85v-28.72h8.33v28.72h-8.33ZM826.03,158.46h8.33v29.37l10.66-12.7h10.02l-11.57,12.7,12.71,16.02h-10.31l-11.51-15.22v15.22h-8.33v-45.39h0ZM868.13,203.85h-8.33v-28.72h8.33v4.5c1.37-1.89,2.83-3.27,4.38-4.15,1.55-.87,3.32-1.31,5.29-1.31,2.39,0,4.33.49,5.82,1.46,1.5.98,2.56,2.45,3.18,4.41,1.33-1.94,2.83-3.41,4.52-4.39,1.69-.99,3.54-1.48,5.55-1.48s3.75.38,5.17,1.13c1.41.75,2.51,1.87,3.29,3.38.41.82.7,1.74.88,2.78.17,1.03.26,2.6.26,4.71v17.69h-8.33v-14.21c0-3.49-.36-5.82-1.07-6.97-.71-1.15-1.96-1.73-3.73-1.73-2.15,0-3.7.8-4.67,2.4-.97,1.61-1.45,4.22-1.45,7.86v12.65h-8.33v-14.21c0-3.38-.33-5.66-1-6.85-.66-1.2-1.81-1.79-3.43-1.79-2.21,0-3.82.8-4.81,2.42-1,1.61-1.5,4.2-1.5,7.78v12.65h0ZM935.59,189.44c0-2.58-.65-4.62-1.95-6.12-1.3-1.51-3.05-2.26-5.26-2.26s-4.05.75-5.35,2.24c-1.3,1.5-1.95,3.54-1.95,6.14s.64,4.63,1.92,6.07c1.28,1.45,3.05,2.17,5.32,2.17s4.1-.72,5.37-2.17c1.27-1.44,1.9-3.47,1.9-6.07h0ZM943.21,203.85h-8.09l.12-4.13c-1.13,1.82-2.49,3.15-4.09,4-1.59.85-3.53,1.27-5.81,1.27-3.81,0-6.88-1.42-9.21-4.25-2.33-2.83-3.5-6.57-3.5-11.2s1.15-8.61,3.44-11.31c2.3-2.71,5.49-4.06,9.56-4.06,2.13,0,4,.48,5.61,1.43,1.61.96,2.97,2.38,4.06,4.27v-4.74h7.91v28.72h0ZM972.22,203c-1.13.68-2.33,1.18-3.58,1.51-1.25.32-2.61.48-4.1.48-4.53,0-8.22-1.44-11.07-4.32s-4.28-6.62-4.28-11.22,1.44-8.19,4.31-11.02c2.87-2.84,6.59-4.26,11.16-4.26,1.52,0,2.89.15,4.1.44,1.21.29,2.37.75,3.46,1.38l-.06,8.37c-.88-.9-1.9-1.6-3.05-2.09-1.15-.49-2.38-.73-3.67-.73-2.34,0-4.22.72-5.63,2.15-1.41,1.44-2.11,3.33-2.11,5.7s.72,4.34,2.16,5.78c1.43,1.43,3.37,2.15,5.82,2.15,1.35,0,2.55-.24,3.59-.73,1.05-.48,2.01-1.24,2.89-2.27l.06,8.68h0ZM978.52,203.85v-45.39h8.16v16.15c0,.89-.02,1.79-.08,2.67-.06.89-.15,1.75-.27,2.59,1.72-2.01,3.44-3.46,5.17-4.36,1.73-.89,3.66-1.34,5.79-1.34s4.1.38,5.63,1.14c1.53.76,2.72,1.9,3.56,3.42.43.8.74,1.71.92,2.71.19,1.01.28,2.58.28,4.73v17.69h-8.33v-14.21c0-3.53-.41-5.87-1.23-7-.82-1.13-2.23-1.7-4.22-1.7-1.15,0-2.21.24-3.18.72-.96.48-1.77,1.16-2.41,2.04-.51.68-.88,1.46-1.1,2.34-.23.88-.34,2.22-.34,4.02v13.79h-8.33ZM1035.37,186.52c-.23-1.82-.89-3.2-1.98-4.13-1.08-.93-2.56-1.39-4.43-1.39s-3.37.46-4.49,1.39c-1.13.93-1.84,2.31-2.16,4.13h13.05ZM1043.62,191.56h-21.56c.33,2.07,1.08,3.62,2.26,4.64,1.17,1.03,2.76,1.54,4.77,1.54,1.52,0,2.84-.29,3.94-.88,1.11-.58,2.03-1.47,2.77-2.66l6.72,3.36c-1.56,2.52-3.46,4.39-5.68,5.61-2.23,1.22-4.88,1.83-7.94,1.83-4.65,0-8.32-1.39-11.04-4.16-2.71-2.77-4.07-6.5-4.07-11.18s1.42-8.22,4.26-11.12c2.84-2.91,6.48-4.36,10.91-4.36s8.17,1.36,10.83,4.09c2.65,2.72,3.98,6.44,3.98,11.13,0,.26,0,.53-.03.84-.02.3-.06.74-.12,1.33h0ZM1058,182.51c.84-2.8,2.04-4.89,3.61-6.27,1.58-1.39,3.52-2.08,5.85-2.08.52,0,1.39.1,2.6.29.24.04.41.07.53.09l-1.26,8.97c-.62-.26-1.25-.46-1.89-.59-.63-.13-1.3-.19-2-.19-2.54,0-4.37.65-5.48,1.95-1.11,1.3-1.67,3.48-1.67,6.53v12.63h-8.33v-28.72h8.21l-.17,7.39h0ZM1068.39,199.71c0-1.41.49-2.61,1.48-3.61.99-.99,2.17-1.49,3.56-1.49s2.57.5,3.56,1.49c.99,1,1.48,2.2,1.48,3.61s-.49,2.56-1.47,3.53c-.97.97-2.16,1.45-3.57,1.45s-2.57-.49-3.56-1.47c-.99-.97-1.48-2.14-1.48-3.51h0Z"></path></svg>